<svg width="120" height="40" viewBox="0 0 120 40" fill="none" xmlns="http://www.w3.org/2000/svg">
  <!-- House Icon -->
  <path d="M20 5L3 18.5V35H37V18.5L20 5Z" fill="#4F46E5" />
  <path d="M20 10L8 19V32H32V19L20 10Z" fill="white" />
  
  <!-- Door -->
  <rect x="17" y="24" width="6" height="8" fill="#4F46E5" />
  
  <!-- Window -->
  <rect x="12" y="18" width="5" height="5" fill="#4F46E5" />
  <rect x="23" y="18" width="5" height="5" fill="#4F46E5" />
  
  <!-- Text -->
  <path d="M49 16V28H52V23.5H57V28H60V16H57V20.5H52V16H49Z" fill="#2D2D2D"/>
  <path d="M62 18.25C62 17.25 62.83 16.5 64.83 16.5C66.83 16.5 68.5 17 69.83 18L71.33 16C69.67 14.67 67.5 14 64.83 14C61 14 58.83 16 58.83 18.5C58.83 23.5 66.33 22 66.33 25C66.33 26 65.33 27 63.33 27C61.33 27 59.33 26 58 24.5L56.5 26.5C58.17 28.33 60.83 29.5 63.5 29.5C67.33 29.5 69.5 27.33 69.5 24.83C69.5 19.83 62 21.17 62 18.25Z" fill="#2D2D2D"/>
  <path d="M76 22.5C76 19.33 78.5 16.5 82 16.5C85.5 16.5 88 19.33 88 22.5C88 25.67 85.5 28.5 82 28.5C78.5 28.5 76 25.67 76 22.5ZM73 22.5C73 27.33 77 31.5 82 31.5C87 31.5 91 27.33 91 22.5C91 17.67 87 13.5 82 13.5C77 13.5 73 17.67 73 22.5Z" fill="#2D2D2D"/>
  <path d="M93 14H96V29H93V14Z" fill="#2D2D2D"/>
  <path d="M102.5 31.25L113 14H110L104 23.5L98 14H95L103 26.25L100.5 31.25H102.5Z" fill="#2D2D2D"/>
  <path d="M114 18.25C114 17.25 114.83 16.5 116.83 16.5C118.83 16.5 120.5 17 121.83 18L123.33 16C121.67 14.67 119.5 14 116.83 14C113 14 110.83 16 110.83 18.5C110.83 23.5 118.33 22 118.33 25C118.33 26 117.33 27 115.33 27C113.33 27 111.33 26 110 24.5L108.5 26.5C110.17 28.33 112.83 29.5 115.5 29.5C119.33 29.5 121.5 27.33 121.5 24.83C121.5 19.83 114 21.17 114 18.25Z" fill="#2D2D2D"/>
</svg>